<?xml version="1.0" encoding="UTF-8" standalone="no"?>
<!-- Created with Inkscape (http://www.inkscape.org/) -->

<svg
   xmlns:dc="http://purl.org/dc/elements/1.1/"
   xmlns:cc="http://creativecommons.org/ns#"
   xmlns:rdf="http://www.w3.org/1999/02/22-rdf-syntax-ns#"
   xmlns:svg="http://www.w3.org/2000/svg"
   xmlns="http://www.w3.org/2000/svg"
   xmlns:sodipodi="http://sodipodi.sourceforge.net/DTD/sodipodi-0.dtd"
   xmlns:inkscape="http://www.inkscape.org/namespaces/inkscape"
   width="46.963539mm"
   height="23.43059mm"
   viewBox="0 0 46.963539 23.43059"
   version="1.1"
   id="svg8"
   inkscape:version="0.92.4 (unknown)"
   sodipodi:docname="logo.svg">
  <defs
     id="defs2" />
  <sodipodi:namedview
     id="base"
     pagecolor="#ffffff"
     bordercolor="#666666"
     borderopacity="1.0"
     inkscape:pageopacity="0.0"
     inkscape:pageshadow="2"
     inkscape:zoom="1.979899"
     inkscape:cx="174.75897"
     inkscape:cy="32.58395"
     inkscape:document-units="mm"
     inkscape:current-layer="layer1"
     showgrid="false"
     fit-margin-top="0"
     fit-margin-left="0"
     fit-margin-right="0"
     fit-margin-bottom="0"
     inkscape:window-width="1920"
     inkscape:window-height="1018"
     inkscape:window-x="0"
     inkscape:window-y="34"
     inkscape:window-maximized="1" />
  <metadata
     id="metadata5">
    <rdf:RDF>
      <cc:Work
         rdf:about="">
        <dc:format>image/svg+xml</dc:format>
        <dc:type
           rdf:resource="http://purl.org/dc/dcmitype/StillImage" />
        <dc:title></dc:title>
      </cc:Work>
    </rdf:RDF>
  </metadata>
  <g
     inkscape:label="Layer 1"
     inkscape:groupmode="layer"
     id="layer1"
     transform="translate(-7.813067,-142.09759)">
    <path
       inkscape:connector-curvature="0"
       id="path18"
       style="font-style:normal;font-weight:normal;font-size:10.58333302px;line-height:1.25;font-family:sans-serif;letter-spacing:0px;word-spacing:0px;opacity:0.33000004;fill:#a02c2c;fill-opacity:1;stroke:none;stroke-width:0.51929498"
       d="m 25.520272,165.52818 q -0.99704,0 -1.53711,-0.49853 -0.5193,-0.47773 -0.5193,-1.30862 0,-1.08013 0.58161,-2.26412 0.60239,-1.18399 1.55789,-2.40953 0.97627,-1.22553 2.07718,-2.45107 -0.87241,-1.14244 -2.76265,-1.14244 h -1.22553 v -1.26709 l 2.74187,-2.76265 h -4.90214 v -0.89318 l 4.15436,-3.03269 h -4.15436 v -1.41249 h 7.04164 v 0.85165 l -4.02973,2.94959 h 4.02973 v 1.32941 l -2.74188,2.78341 q 2.03564,0.12463 3.11577,1.41249 0.35312,-0.29081 0.78933,-0.62316 0.43621,-0.35312 0.97627,-0.72702 0.0623,-2.03562 0.58161,-3.9674 0.5193,-1.95256 1.41249,-3.57276 0.91395,-1.6202 2.13949,-2.74188 1.84869,-1.68251 3.67661,-1.68251 1.16322,0 1.84869,0.54007 0.68547,0.54007 0.68547,1.49557 0,1.12168 -0.68547,2.05641 -0.68547,0.91396 -1.91101,1.45402 0.93474,0.93473 0.93474,2.18104 0,1.35017 -0.8101,2.18104 -0.8101,0.83088 -2.05641,0.83088 -0.70625,0 -1.37094,-0.39468 -0.64393,-0.39465 -1.12168,-1.01781 -0.45698,-0.64392 -0.62315,-1.37094 l 1.08013,-0.60238 q 0.33235,0.78933 0.74779,1.39172 0.4362,0.5816 1.05936,0.5816 0.56084,0 0.91396,-0.47776 0.37389,-0.49852 0.37389,-1.30862 0,-1.03858 -0.62315,-1.66173 -0.27004,0.0624 -0.74779,0.12463 -0.47775,0.0624 -1.12168,0.10383 l -0.0623,-0.85163 q 2.09795,-0.3739 3.2404,-1.16323 1.14245,-0.8101 1.14245,-1.78638 0,-0.39466 -0.31158,-0.66469 -0.29081,-0.27004 -0.83087,-0.27004 -0.54007,0 -1.18399,0.41544 -0.64393,0.41544 -1.3294,1.16323 -0.68547,0.727 -1.32939,1.70328 -0.62316,0.95549 -1.10091,2.03564 -0.97627,2.18104 -1.16322,4.50747 0.47775,-0.29081 1.1009,-0.29081 0.85165,0 1.3294,0.49853 0.47775,0.49852 0.47775,1.26709 0,0.89318 -0.56084,1.47478 -0.56084,0.58163 -1.43325,0.58163 -1.35017,0 -2.01487,-1.22555 -0.31157,0.27003 -0.64392,0.56084 -0.31158,0.29081 -0.62316,0.58161 0.72702,1.41249 0.72702,2.90806 0,1.03859 -0.41544,2.0564 -0.41544,1.0386 -1.14245,1.91102 -0.70624,0.87241 -1.59943,1.3917 -0.89318,0.51929 -1.84869,0.51929 z m 7.64403,-10.012 q 0.2908,0 0.45697,-0.16624 0.18695,-0.18684 0.18695,-0.47775 0,-0.58161 -0.62315,-0.58161 -0.45698,0 -0.85165,0.39466 0.20772,0.83088 0.83088,0.83088 z m -7.54017,8.49566 q 0.74779,0 1.4748,-0.62315 0.74778,-0.60239 1.24631,-1.6202 0.49852,-0.99705 0.49852,-2.18104 0,-1.0386 -0.35312,-1.70328 -0.60238,0.60237 -1.20476,1.3917 -0.58161,0.76855 -1.08014,1.57865 -0.47775,0.78934 -0.78933,1.47481 -0.2908,0.70623 -0.2908,1.16322 0,0.51929 0.49852,0.51929 z" />
    <g
       id="g96"
       transform="translate(-85.793523,17.6398)">
      <path
         d="m 98.241203,137.28434 q 0,0.097 -0.07496,0.20725 -0.308681,0.44097 -0.837847,0.71879 -0.524757,0.27781 -1.067153,0.27781 -1.195035,0 -1.966736,-1.08479 -0.687917,-0.97455 -0.687917,-2.2225 0,-1.24795 0.687917,-2.2225 0.771701,-1.08479 1.966736,-1.08479 0.542396,0 1.067153,0.27781 0.529166,0.27781 0.837847,0.71878 0.07496,0.11025 0.07496,0.20726 0,0.13229 -0.105833,0.23372 -0.101424,0.10142 -0.238125,0.10142 -0.08378,0 -0.202847,-0.0794 -0.114653,-0.0838 -0.136702,-0.15875 -0.0044,-0.009 -0.0926,-0.10142 -0.537986,-0.53799 -1.203854,-0.53799 -0.612951,0 -1.124479,0.47185 -0.454202,0.41451 -0.679097,1.0451 -0.189619,0.52917 -0.189619,1.12889 0,0.59972 0.189619,1.12889 0.224895,0.63059 0.674687,1.0451 0.511528,0.47184 1.128889,0.47184 0.661458,0 1.203854,-0.53798 0.03969,-0.0309 0.0926,-0.097 0.0044,-0.0661 0.132292,-0.15434 0.132291,-0.0882 0.207257,-0.0882 0.136701,0 0.238125,0.10142 0.105833,0.10142 0.105833,0.23372 z"
         style="font-style:normal;font-variant:normal;font-weight:normal;font-stretch:normal;font-size:10.58333302px;line-height:1.25;font-family:Monofur;-inkscape-font-specification:Monofur;letter-spacing:0px;word-spacing:0px;fill:#000000;fill-opacity:1;stroke:none;stroke-width:0.26458332"
         id="path21"
         inkscape:connector-curvature="0" />
      <path
         d="m 103.30797,138.15746 q 0,0.33073 -0.33073,0.33073 -0.33954,0 -0.33072,-0.46743 -0.65264,0.46743 -1.54341,0.46743 -0.8158,0 -1.459615,-0.4101 -0.745243,-0.47625 -0.745243,-1.24355 0,-0.76729 0.745243,-1.24354 0.648225,-0.4101 1.459615,-0.4101 0.89077,0 1.54341,0.46743 v -0.1367 q 0,-0.19403 -0.13671,-0.39247 -0.40569,-0.59972 -1.4067,-0.59972 -0.57326,0 -1.133296,0.32632 -0.114653,0.0661 -0.198437,0.0661 -0.132292,0 -0.233716,-0.10143 -0.09701,-0.10583 -0.09701,-0.24253 0,-0.32632 0.692319,-0.5424 0.53799,-0.16757 0.97014,-0.16757 0.81139,0 1.45962,0.41011 0.74524,0.47625 0.74524,1.24354 z m -0.66145,-1.32292 q 0,-0.31309 -0.29987,-0.57767 -0.25135,-0.22049 -0.59531,-0.32191 -0.29986,-0.0926 -0.64823,-0.0926 -1.02305,0 -1.424338,0.62618 -0.119062,0.18521 -0.119062,0.366 0,0.1808 0.119062,0.36601 0.401288,0.62618 1.424338,0.62618 0.34837,0 0.64823,-0.0926 0.34396,-0.10143 0.59531,-0.32191 0.29987,-0.26459 0.29987,-0.57768 z"
         style="font-style:normal;font-variant:normal;font-weight:normal;font-stretch:normal;font-size:10.58333302px;line-height:1.25;font-family:Monofur;-inkscape-font-specification:Monofur;letter-spacing:0px;word-spacing:0px;fill:#000000;fill-opacity:1;stroke:none;stroke-width:0.26458332"
         id="path23"
         inkscape:connector-curvature="0" />
      <path
         d="m 108.82013,136.17309 q 0,0.91722 -0.58209,1.60072 -0.60854,0.71438 -1.51253,0.71438 -0.83344,0 -1.43316,-0.62618 v 2.27983 q 0,0.33072 -0.33073,0.33072 -0.33073,0 -0.33073,-0.33072 v -5.95313 q 0,-0.33073 0.33073,-0.33073 0.24253,0 0.30427,0.21167 0.0265,0.0926 0.0265,0.41451 0.59972,-0.62618 1.43316,-0.62618 0.90399,0 1.51253,0.71438 0.58209,0.6835 0.58209,1.60073 z m -0.66146,0 q 0,-0.64382 -0.38806,-1.12889 -0.41892,-0.52476 -1.0451,-0.52476 -0.62618,0 -1.04511,0.52476 -0.38805,0.48507 -0.38805,1.12889 0,0.64382 0.38805,1.12888 0.41893,0.52476 1.04511,0.52476 0.62618,0 1.0451,-0.52476 0.38806,-0.48506 0.38806,-1.12888 z"
         style="font-style:normal;font-variant:normal;font-weight:normal;font-stretch:normal;font-size:10.58333302px;line-height:1.25;font-family:Monofur;-inkscape-font-specification:Monofur;letter-spacing:0px;word-spacing:0px;fill:#000000;fill-opacity:1;stroke:none;stroke-width:0.26458332"
         id="path25"
         inkscape:connector-curvature="0" />
      <path
         d="m 114.1162,134.92513 q 0,0.13671 -0.10583,0.23813 -0.10142,0.097 -0.23813,0.097 -0.12347,0 -0.24694,-0.12788 -0.60854,-0.61295 -1.28764,-0.61295 -0.68351,0 -1.16857,0.48507 -0.48507,0.48507 -0.48507,1.16858 v 1.98437 q 0,0.33073 -0.33073,0.33073 -0.33073,0 -0.33073,-0.33073 v -3.96875 q 0,-0.33073 0.33073,-0.33073 0.25576,0 0.3175,0.24695 0.0176,0.0794 0.0132,0.44979 0.67909,-0.69674 1.65364,-0.69674 0.50271,0 1.00101,0.22931 0.52476,0.23812 0.79816,0.63059 0.0794,0.11465 0.0794,0.20725 z"
         style="font-style:normal;font-variant:normal;font-weight:normal;font-stretch:normal;font-size:10.58333302px;line-height:1.25;font-family:Monofur;-inkscape-font-specification:Monofur;letter-spacing:0px;word-spacing:0px;fill:#000000;fill-opacity:1;stroke:none;stroke-width:0.26458332"
         id="path27"
         inkscape:connector-curvature="0" />
      <path
         d="m 117.59106,132.37631 q 0,0.20726 -0.14993,0.34837 -0.14552,0.14111 -0.35277,0.14111 -0.20726,0 -0.35719,-0.14111 -0.14552,-0.14111 -0.14552,-0.34837 0,-0.20725 0.14552,-0.35277 0.14993,-0.14993 0.35719,-0.14993 0.20725,0 0.35277,0.14993 0.14993,0.14552 0.14993,0.35277 z m 1.15094,5.78115 q 0,0.33073 -0.33073,0.33073 h -1.32291 q -0.33073,0 -0.33073,-0.33073 v -3.63802 h -0.99219 q -0.33073,0 -0.33073,-0.33073 0,-0.33073 0.33073,-0.33073 h 1.32733 q 0.32631,0 0.32631,0.33073 v 3.63802 h 0.99219 q 0.33073,0 0.33073,0.33073 z"
         style="font-style:normal;font-variant:normal;font-weight:normal;font-stretch:normal;font-size:10.58333302px;line-height:1.25;font-family:Monofur;-inkscape-font-specification:Monofur;letter-spacing:0px;word-spacing:0px;fill:#000000;fill-opacity:1;stroke:none;stroke-width:0.26458332"
         id="path29"
         inkscape:connector-curvature="0" />
      <path
         d="m 124.69954,134.76197 q 0,0.13671 -0.10143,0.24254 -0.10142,0.10142 -0.23371,0.10142 -0.0926,0 -0.21608,-0.0838 -0.70997,-0.50271 -1.42875,-0.50271 -0.75847,0 -1.34938,0.44097 -0.64381,0.48066 -0.64381,1.21268 0,0.73201 0.64822,1.21267 0.5865,0.44097 1.34497,0.44097 0.71437,0 1.42875,-0.4983 0.11906,-0.0838 0.21167,-0.0838 0.1367,0 0.23812,0.10583 0.10143,0.10143 0.10143,0.23372 0,0.12788 -0.12348,0.24694 -0.30868,0.30868 -0.8643,0.48948 -0.50712,0.16757 -0.99219,0.16757 -1.03628,0 -1.81681,-0.63059 -0.83784,-0.67028 -0.83784,-1.68451 0,-1.01424 0.83784,-1.68452 0.78053,-0.63059 1.81681,-0.63059 0.48507,0 0.99219,0.16757 0.56003,0.18521 0.86871,0.49389 0.11907,0.11906 0.11907,0.24253 z"
         style="font-style:normal;font-variant:normal;font-weight:normal;font-stretch:normal;font-size:10.58333302px;line-height:1.25;font-family:Monofur;-inkscape-font-specification:Monofur;letter-spacing:0px;word-spacing:0px;fill:#000000;fill-opacity:1;stroke:none;stroke-width:0.26458332"
         id="path31"
         inkscape:connector-curvature="0" />
      <path
         d="m 129.9912,134.76197 q 0,0.13671 -0.10142,0.24254 -0.10142,0.10142 -0.23372,0.10142 -0.0926,0 -0.21607,-0.0838 -0.70997,-0.50271 -1.42875,-0.50271 -0.75847,0 -1.34938,0.44097 -0.64382,0.48066 -0.64382,1.21268 0,0.73201 0.64823,1.21267 0.5865,0.44097 1.34497,0.44097 0.71437,0 1.42875,-0.4983 0.11906,-0.0838 0.21166,-0.0838 0.13671,0 0.23813,0.10583 0.10142,0.10143 0.10142,0.23372 0,0.12788 -0.12347,0.24694 -0.30868,0.30868 -0.8643,0.48948 -0.50712,0.16757 -0.99219,0.16757 -1.03629,0 -1.81681,-0.63059 -0.83784,-0.67028 -0.83784,-1.68451 0,-1.01424 0.83784,-1.68452 0.78052,-0.63059 1.81681,-0.63059 0.48507,0 0.99219,0.16757 0.56003,0.18521 0.86871,0.49389 0.11906,0.11906 0.11906,0.24253 z"
         style="font-style:normal;font-variant:normal;font-weight:normal;font-stretch:normal;font-size:10.58333302px;line-height:1.25;font-family:Monofur;-inkscape-font-specification:Monofur;letter-spacing:0px;word-spacing:0px;fill:#000000;fill-opacity:1;stroke:none;stroke-width:0.26458332"
         id="path33"
         inkscape:connector-curvature="0" />
      <path
         d="m 133.46606,132.37631 q 0,0.20726 -0.14993,0.34837 -0.14552,0.14111 -0.35278,0.14111 -0.20725,0 -0.35718,-0.14111 -0.14552,-0.14111 -0.14552,-0.34837 0,-0.20725 0.14552,-0.35277 0.14993,-0.14993 0.35718,-0.14993 0.20726,0 0.35278,0.14993 0.14993,0.14552 0.14993,0.35277 z m 1.15094,5.78115 q 0,0.33073 -0.33073,0.33073 h -1.32292 q -0.33073,0 -0.33073,-0.33073 v -3.63802 h -0.99218 q -0.33073,0 -0.33073,-0.33073 0,-0.33073 0.33073,-0.33073 h 1.32732 q 0.32632,0 0.32632,0.33073 v 3.63802 h 0.99219 q 0.33073,0 0.33073,0.33073 z"
         style="font-style:normal;font-variant:normal;font-weight:normal;font-stretch:normal;font-size:10.58333302px;line-height:1.25;font-family:Monofur;-inkscape-font-specification:Monofur;letter-spacing:0px;word-spacing:0px;fill:#ff0000;fill-opacity:1;stroke:none;stroke-width:0.26458332"
         id="path35"
         inkscape:connector-curvature="0" />
      <path
         d="m 140.57013,136.17309 q 0,0.95691 -0.6791,1.636 -0.6791,0.6791 -1.63601,0.6791 -0.95691,0 -1.63601,-0.6791 -0.67909,-0.67909 -0.67909,-1.636 0,-0.95691 0.67909,-1.63601 0.6791,-0.6791 1.63601,-0.6791 0.95691,0 1.63601,0.6791 0.6791,0.6791 0.6791,1.63601 z m -0.66146,0 q 0,-0.68351 -0.48507,-1.16858 -0.48507,-0.48507 -1.16858,-0.48507 -0.68351,0 -1.16858,0.48507 -0.48506,0.48507 -0.48506,1.16858 0,0.6835 0.48506,1.16857 0.48507,0.48507 1.16858,0.48507 0.68351,0 1.16858,-0.48507 0.48507,-0.48507 0.48507,-1.16857 z"
         style="font-style:normal;font-variant:normal;font-weight:normal;font-stretch:normal;font-size:10.58333302px;line-height:1.25;font-family:Monofur;-inkscape-font-specification:Monofur;letter-spacing:0px;word-spacing:0px;fill:#ff0000;fill-opacity:1;stroke:none;stroke-width:0.26458332"
         id="path37"
         inkscape:connector-curvature="0" />
    </g>
    <text
       xml:space="preserve"
       style="font-style:normal;font-weight:normal;font-size:10.58333302px;line-height:1.25;font-family:sans-serif;letter-spacing:0px;word-spacing:0px;fill:#000000;fill-opacity:1;stroke:none;stroke-width:0.26458332"
       x="61.739262"
       y="171.38332"
       id="text56"><tspan
         sodipodi:role="line"
         id="tspan54"
         x="61.739262"
         y="180.74709"
         style="font-style:normal;font-variant:normal;font-weight:normal;font-stretch:normal;font-family:Monofur;-inkscape-font-specification:Monofur;stroke-width:0.26458332" /></text>
  </g>
</svg>
